<?xml version="1.0" encoding="UTF-8"?>
<svg width="256px" height="288px" viewBox="0 0 256 288" version="1.1" xmlns="http://www.w3.org/2000/svg" xmlns:xlink="http://www.w3.org/1999/xlink" preserveAspectRatio="xMidYMid">
  <g>
    <path d="M255.569,84.452376 C255.567,79.622376 254.534,75.354376 252.445,71.691376 C250.393,68.089376 247.32,65.070376 243.198,62.683376 C209.173,43.064376 175.115,23.505376 141.101,3.86637605 C131.931,-1.42762395 123.04,-1.23462395 113.938,4.13537605 C100.395,12.122376 32.59,50.969376 12.385,62.672376 C4.064,67.489376 0.015,74.861376 0.013,84.443376 C0,123.898376 0.013,163.352376 0,202.808376 C0,207.532376 0.991,211.717376 2.988,215.325376 C5.041,219.036376 8.157,222.138376 12.374,224.579376 C32.58,236.282376 100.394,275.126376 113.934,283.115376 C123.04,288.488376 131.931,288.680376 141.104,283.384376 C175.119,263.744376 209.179,244.186376 243.209,224.567376 C247.426,222.127376 250.542,219.023376 252.595,215.315376 C254.589,211.707376 255.582,207.522376 255.582,202.797376 C255.582,202.797376 255.582,123.908376 255.569,84.452376" fill="#E57373" fill-rule="nonzero"/>
    <path d="M128.182,143.241376 L2.988,215.325376 C5.041,219.036376 8.157,222.138376 12.374,224.579376 C32.58,236.282376 100.394,275.126376 113.934,283.115376 C123.04,288.488376 131.931,288.680376 141.104,283.384376 C175.119,263.744376 209.179,244.186376 243.209,224.567376 C247.426,222.127376 250.542,219.023376 252.595,215.315376 L128.182,143.241376" fill="#C62828" fill-rule="nonzero"/>
    <path d="M255.569,84.452376 C255.567,79.622376 254.534,75.354376 252.445,71.691376 L128.182,143.241376 L252.595,215.315376 C254.589,211.707376 255.58,207.522376 255.582,202.797376 C255.582,202.797376 255.582,123.908376 255.569,84.452376" fill="#B71C1C" fill-rule="nonzero"/>
    <path d="M206,80 
C192,54 163,40 128,40 
C86,40 54,70 54,104 
C54,129 70,148 104,157 
L104,158 
C137,166 152,172 152,188 
C152,198 142,208 126,208 
C108,208 95,197 88,182 
L48,204 
C62,234 94,256 128,256 
C170,256 204,226 204,192 
C204,166 188,146 152,136 
C118,126 104,120 104,104 
C104,94 114,84 128,84 
C145,84 158,93 166,108 
L206,80 Z" fill="#FFFFFF" fill-rule="nonzero"/>
  </g>
</svg>